<svg width="93" height="50" viewBox="0 0 93 50" fill="none" xmlns="http://www.w3.org/2000/svg">
<circle cx="25" cy="25" r="24.25" fill="black" stroke="white" stroke-width="1.5"/>
<path d="M14.5455 23.0938C14.4858 22.8864 14.402 22.7031 14.294 22.544C14.1861 22.3821 14.054 22.2457 13.8977 22.1349C13.7443 22.0213 13.5682 21.9347 13.3693 21.875C13.1733 21.8153 12.956 21.7855 12.7173 21.7855C12.2713 21.7855 11.8793 21.8963 11.5412 22.1179C11.206 22.3395 10.9446 22.6619 10.7571 23.0852C10.5696 23.5057 10.4759 24.0199 10.4759 24.6278C10.4759 25.2358 10.5682 25.7528 10.7528 26.179C10.9375 26.6051 11.1989 26.9304 11.5369 27.1548C11.875 27.3764 12.2741 27.4872 12.7344 27.4872C13.152 27.4872 13.5085 27.4134 13.804 27.2656C14.1023 27.1151 14.3295 26.9034 14.4858 26.6307C14.6449 26.358 14.7244 26.0355 14.7244 25.6634L15.0994 25.7188H12.8494V24.3295H16.5014V25.429C16.5014 26.196 16.3395 26.8551 16.0156 27.4062C15.6918 27.9545 15.2457 28.3778 14.6776 28.6761C14.1094 28.9716 13.4588 29.1193 12.7259 29.1193C11.9077 29.1193 11.1889 28.9389 10.5696 28.5781C9.95028 28.2145 9.46733 27.6989 9.12074 27.0312C8.77699 26.3608 8.60511 25.5653 8.60511 24.6449C8.60511 23.9375 8.70739 23.3068 8.91193 22.7528C9.11932 22.196 9.40909 21.7244 9.78125 21.3381C10.1534 20.9517 10.5866 20.6577 11.081 20.456C11.5753 20.2543 12.1108 20.1534 12.6875 20.1534C13.1818 20.1534 13.642 20.2259 14.0682 20.3707C14.4943 20.5128 14.8722 20.7145 15.2017 20.9759C15.5341 21.2372 15.8054 21.5483 16.0156 21.9091C16.2259 22.267 16.3608 22.6619 16.4205 23.0938H14.5455ZM17.8874 29V20.2727H23.7681V21.794H19.7326V23.8736H23.4656V25.3949H19.7326V27.4787H23.7852V29H17.8874ZM25.2351 29V20.2727H31.1158V21.794H27.0803V23.8736H30.8132V25.3949H27.0803V27.4787H31.1328V29H25.2351ZM32.5827 29V20.2727H34.4279V24.1207H34.543L37.6836 20.2727H39.8952L36.6566 24.1804L39.9336 29H37.7262L35.3356 25.4119L34.4279 26.5199V29H32.5827Z" fill="#ECECEC"/>
<path d="M54.4261 21.794V20.2727H61.5938V21.794H58.9219V29H57.098V21.794H54.4261ZM62.7741 29V20.2727H68.6548V21.794H64.6193V23.8736H68.3523V25.3949H64.6193V27.4787H68.6719V29H62.7741ZM77.8221 23.3281H75.9556C75.9215 23.0866 75.8519 22.8722 75.7468 22.6847C75.6417 22.4943 75.5067 22.3324 75.342 22.1989C75.1772 22.0653 74.9869 21.9631 74.771 21.892C74.5579 21.821 74.3263 21.7855 74.0763 21.7855C73.6246 21.7855 73.2312 21.8977 72.896 22.1222C72.5607 22.3437 72.3008 22.6676 72.1161 23.0938C71.9315 23.517 71.8391 24.0312 71.8391 24.6364C71.8391 25.2585 71.9315 25.7812 72.1161 26.2045C72.3036 26.6278 72.565 26.9474 72.9002 27.1634C73.2354 27.3793 73.6232 27.4872 74.0636 27.4872C74.3107 27.4872 74.5394 27.4545 74.7496 27.3892C74.9627 27.3239 75.1516 27.2287 75.3164 27.1037C75.4812 26.9759 75.6175 26.821 75.7255 26.6392C75.8363 26.4574 75.913 26.25 75.9556 26.017L77.8221 26.0256C77.7738 26.4261 77.6531 26.8125 77.4599 27.1847C77.2695 27.554 77.0124 27.8849 76.6886 28.1776C76.3675 28.4673 75.984 28.6974 75.538 28.8679C75.0948 29.0355 74.5934 29.1193 74.0337 29.1193C73.2553 29.1193 72.5593 28.9432 71.9457 28.5909C71.3349 28.2386 70.8519 27.7287 70.4968 27.0611C70.1445 26.3935 69.9684 25.5852 69.9684 24.6364C69.9684 23.6847 70.1474 22.875 70.5053 22.2074C70.8633 21.5398 71.3491 21.0312 71.9627 20.6818C72.5763 20.3295 73.2667 20.1534 74.0337 20.1534C74.5394 20.1534 75.0082 20.2244 75.44 20.3665C75.8746 20.5085 76.2596 20.7159 76.5948 20.9886C76.93 21.2585 77.2028 21.5895 77.413 21.9815C77.6261 22.3736 77.7624 22.8224 77.8221 23.3281ZM79.1452 29V20.2727H80.9904V23.8736H84.7362V20.2727H86.5771V29H84.7362V25.3949H80.9904V29H79.1452Z" fill="white"/>
<path d="M92.0028 14.1818V20H90.7727V15.3494H90.7386L89.4062 16.1847V15.0938L90.8466 14.1818H92.0028Z" fill="white"/>
</svg>
